<?xml version="1.0" encoding="UTF-8"?>
<svg width="228px" height="119px" viewBox="0 0 228 119" version="1.1" xmlns="http://www.w3.org/2000/svg" xmlns:xlink="http://www.w3.org/1999/xlink">
    <!-- Generator: Sketch 59.1 (86144) - https://sketch.com -->
    <title>Shape</title>
    <desc>Created with Sketch.</desc>
    <g id="Page-1" stroke="none" stroke-width="1" fill="none" fill-rule="evenodd">
        <path d="M87.2961773,12.034183 C88.4614773,11.920083 88.9567773,11.061183 89.3989773,10.143083 C90.0855773,8.71728301 90.3312773,6.40638301 92.5777773,7.15658301 C94.6716773,7.85578301 95.4393773,9.99308301 95.0681773,12.106083 C94.5554773,15.024183 93.4794773,17.846883 93.6274773,21.304983 C96.0493773,20.356283 96.6746773,18.185883 97.8759773,16.573683 C98.8730773,15.235583 99.8726773,13.471883 101.828677,14.537383 C103.549877,15.475083 103.347977,17.362683 102.828277,19.013383 C102.151077,21.164983 101.344777,23.275883 100.549377,25.530583 C104.223177,26.365583 106.405077,21.903783 109.120877,23.282183 C111.411377,24.444783 109.690677,28.214283 111.862877,30.542483 C116.628977,35.650983 120.465477,41.511583 123.065977,48.091683 C123.426377,49.003583 124.041177,49.840783 124.652077,50.623683 C130.195777,57.727483 132.618777,57.722583 139.484977,51.768983 C147.098177,45.167683 151.261877,36.133383 156.966577,28.188283 C158.475777,26.086583 159.664477,23.697283 162.617377,22.138583 C162.849877,27.774983 158.551777,31.108683 158.112177,36.227383 C161.884177,31.920583 165.656077,27.613883 169.428077,23.307183 C169.819577,23.582683 170.211077,23.858183 170.602477,24.133683 C170.182877,31.103483 163.307577,34.786083 160.505777,41.997383 C167.693477,38.547783 172.367877,33.229783 178.716177,30.417583 C176.362777,37.070183 169.282477,39.413583 164.359977,45.574883 C170.534077,43.717083 175.462077,42.234283 180.875377,40.605483 C180.410977,43.399383 177.141477,42.736383 176.976977,44.972483 C177.154677,45.165883 177.346577,45.572383 177.574377,45.593483 C184.010177,46.191183 183.942777,46.146783 180.854377,51.660983 C177.599577,57.471883 174.842777,63.498483 173.003277,69.944283 C170.458477,78.862183 166.473577,87.064583 159.804377,93.674583 C157.628677,95.830983 158.143277,97.139083 160.604877,98.002983 C173.883177,102.663283 186.882177,108.229683 201.500977,107.672283 C206.644777,107.476083 210.858877,104.384183 216.038977,104.567283 C219.049277,104.673683 221.976977,104.554583 224.849177,105.602783 C226.028177,106.032983 227.809377,105.744483 227.674177,107.688683 C227.555277,109.399783 226.306777,110.174883 224.669677,110.530483 C218.628877,111.842783 212.553177,112.700783 206.355677,112.126283 C200.717277,111.603583 195.085877,111.000783 189.445177,110.504483 C187.960477,110.373983 186.292877,110.088183 184.981177,110.587883 C176.243177,113.915983 167.200677,112.032983 158.297177,112.569183 C149.867677,113.076883 141.516677,114.878583 133.129077,116.097783 C123.118177,117.553083 113.125677,120.053583 102.973477,117.312983 C97.7197773,115.894683 92.8732773,113.329183 87.2017773,112.974283 C83.3849773,112.735383 79.5425773,112.259883 75.7663773,112.606083 C61.0228773,113.957283 45.9838773,111.133883 31.5031773,114.871783 C21.8506773,117.363483 11.9786773,116.700183 2.35777726,118.597483 C1.55517726,118.755783 0.701977262,118.756183 0.0216772616,117.994383 C-0.181222738,116.500383 1.08267726,116.118983 2.03947726,115.565683 C6.90017726,112.753583 11.9136773,110.321783 16.2651773,106.543983 C20.5910773,102.788383 26.4114773,104.124783 31.1963773,105.289983 C47.2649773,109.202783 62.2097773,108.638483 75.4124773,97.316683 C77.8024773,95.267283 80.1602773,92.940283 82.9531773,91.653583 C87.9764773,89.339283 88.7990773,85.630283 87.5122773,80.985083 C85.1282773,72.379583 81.8788773,64.196483 74.5770773,58.410483 C72.0652773,56.420183 70.6314773,54.067983 70.5500773,50.784883 C70.2228773,37.576483 71.9556773,24.561783 74.1954773,11.603383 C74.7022773,8.67108301 75.6584773,5.78418301 76.7083773,2.98938301 C77.4133773,1.11278301 78.2242773,-1.80531699 80.9538773,1.50058301 C81.0588773,1.62778301 81.1704773,1.83688301 81.2938773,1.84838301 C83.1023773,2.01758301 85.2763773,-0.977016992 86.6861773,2.26018301 C88.0519773,5.39668301 87.6815773,8.76248301 87.2745773,12.081683 C87.3252773,12.316283 87.3766773,12.541383 87.4280773,12.766283 C87.3841773,12.522483 87.3401773,12.278383 87.2961773,12.034183 Z M151.864077,74.300483 C152.313677,67.698183 145.402077,61.801583 139.595377,63.238383 C137.586177,63.735683 137.389777,65.301683 138.298277,66.726983 C140.880477,70.777683 143.466877,74.854083 146.432777,78.620383 C148.065977,80.694283 150.119677,80.885483 150.915177,77.530583 C151.219577,76.246583 151.657577,74.994083 151.864077,74.300483 Z M149.163977,82.731783 C148.735877,83.195183 148.263177,83.482383 148.231377,83.812183 C148.205777,84.077183 148.746577,84.655583 148.978077,84.626983 C149.338277,84.582383 149.817777,84.191983 149.922677,83.848983 C149.993877,83.616183 149.510777,83.213583 149.163977,82.731783 Z" id="Shape" fill="#000000" fill-rule="nonzero" transform="translate(113.840723, 59.340594) scale(-1, 1) translate(-113.840723, -59.340594) "></path>
    </g>
</svg>