<?xml version="1.0" encoding="UTF-8"?>
<svg width="273px" height="175px" viewBox="0 0 273 175" version="1.1" xmlns="http://www.w3.org/2000/svg" xmlns:xlink="http://www.w3.org/1999/xlink">
    <!-- Generator: Sketch 59.1 (86144) - https://sketch.com -->
    <title>Path</title>
    <desc>Created with Sketch.</desc>
    <g id="Page-1" stroke="none" stroke-width="1" fill="none" fill-rule="evenodd">
        <path d="M79.62,7.7889968 C87.13,2.7789968 96.07,-0.391003203 105.19,0.0389967969 C110.1,-0.211003203 114.93,0.788996797 119.74,1.6689968 C125.45,2.7889968 131.32,1.4689968 137.05,2.3889968 C142.31,3.9889968 147.9,4.8189968 152.76,7.5589968 C157.43,10.3789968 162.71,12.4589968 168.15,13.1189968 C179.08,11.6889968 190.22,11.6189968 201.18,12.9989968 C207.91,12.8989968 214.52,14.7189968 221.28,14.0889968 C223,14.1589968 224.44,13.1189968 225.92,12.3589968 C226.34,12.2089968 227.17,11.9289968 227.59,11.7789968 C232.61,10.1089968 237.92,9.7689968 243.15,9.0989968 C249.36,8.5689968 254.11,13.3589968 259.33,15.9089968 C263.51,17.7089968 268,18.6089968 272.42,19.6789968 C271.72,20.4289968 271.62,21.9589968 270.34,21.9189968 C267.63,22.4689968 264.9,22.8789968 262.17,23.1989968 L262.18,23.8389968 C265.25,24.3489968 268.27,25.1389968 271.25,26.1089968 C271.21,26.8489968 271.15,28.3489968 271.12,29.0989968 C265.66,29.1889968 260.17,28.6689968 254.77,29.5389968 C249.28,30.6589968 243.69,29.4489968 238.17,29.9489968 C233.45,30.3489968 228.73,29.9789968 224.12,29.0089968 C217.89,27.5889968 211.49,28.1689968 205.18,28.0689968 C195.97,27.7189968 186.33,29.9889968 179.03,35.8189968 C176.69,37.8289968 173.59,38.5589968 171.22,40.4589968 C171.19,40.7689968 171.13,41.3889968 171.11,41.6989968 C174.04,43.8589968 178.37,44.7489968 179.98,48.3389968 C180.44,51.8989968 180.18,55.5189968 180.24,59.1189968 C180.39,64.5889968 178.19,69.7089968 176.95,74.9489968 C175.78,78.9089968 176.13,83.0789968 176.33,87.1389968 C177.12,98.5289968 175.03,109.978997 170.83,120.568997 C170.22,122.888997 169.54,125.208997 168.92,127.528997 C165.46,138.888997 161.63,150.198997 155.94,160.668997 C154.21,163.968997 152.27,167.148997 150.43,170.378997 C148.92,169.968997 147.44,169.568997 145.98,169.148997 C144.7,171.698997 143.07,175.278997 139.55,173.788997 C139.14,171.668997 139.04,169.508997 138.8,167.388997 C137.16,168.718997 135.73,170.278997 134.61,172.058997 C133.4,172.078997 132.22,172.118997 131.06,172.158997 C129.74,169.318997 130.76,166.348997 130.99,163.418997 C129.11,162.398997 127.36,164.878997 125.65,165.428997 C122.92,162.348997 123.34,158.348997 124.11,154.648997 C122.95,153.578997 121.6,152.768997 120.5,151.678997 C119.01,148.158997 119.02,144.328997 120.24,140.738997 C115.64,137.558997 115.3,131.728997 116.12,126.688997 C114.49,124.378997 112.72,121.998997 112.46,119.098997 C112.34,113.528997 109.38,108.498997 110.04,102.848997 C107.25,99.0789968 108.43,94.2889968 108.28,89.9589968 C108.16,88.2289968 109.33,86.8189968 110.03,85.3489968 C110.06,84.9489968 110.13,84.1489968 110.16,83.7489968 C106.76,77.4389968 101.4,72.6789968 96.75,67.3689968 C95.49,66.2789968 93.21,65.0189968 91.94,66.6989968 C86.77,74.1389968 79.88,80.1489968 72.71,85.5989968 C68.46,88.6289968 66.33,93.7489968 62.13,96.8089968 C59.26,98.3589968 56.12,99.3189968 53.11,100.518997 C52.99,98.6789968 52.92,96.8489968 52.89,95.0289968 C51.13,95.3789968 49.38,95.7389968 47.64,96.0689968 C47.81,92.8189968 48.76,89.3189968 46.85,86.3889968 C44.63,82.5889968 48.92,77.8689968 45.18,74.6489968 C45.39,72.3889968 45.84,70.1189968 45.48,67.8589968 C41.91,67.9889968 38.33,68.4789968 35.07,70.0089968 C31.01,71.4489968 27.46,74.4989968 22.95,74.2489968 C21.94,72.7789968 20.91,71.3389968 19.88,69.9189968 C18.62,70.0989968 17.38,70.2989968 16.17,70.4989968 C16.15,69.1989968 16.15,67.9089968 16.18,66.6189968 C18.22,64.6489968 20.22,62.6289968 22.1,60.4889968 C20.93,60.0589968 19.87,59.1089968 18.59,59.4689968 C15.07,60.0889968 11.49,60.1189968 7.95,60.3089968 C5.58,61.2189968 3.01,61.0789968 0.55,60.9789968 C2.6,57.7689968 6.22,56.1489968 8.66,53.3089968 L8.24,52.2089968 C5.53,52.5489968 2.5,54.7489968 0,52.7589968 C0.2,51.2289968 1.3,50.2889968 2.6,49.6289968 C8.22,46.8889968 14.47,46.1189968 20.37,44.2089968 C25.38,42.5989968 30.98,43.2189968 35.71,40.6589968 C40.22,38.1389968 45.06,36.2989968 49.61,33.8489968 C46.91,30.0089968 42.94,26.9489968 41.14,22.5889968 C48.53,17.2789968 57.81,16.0689968 65.92,12.3289968 C66.34,12.2089968 67.18,11.9789968 67.6,11.8589968 C68.6,11.4889968 69.62,11.1289968 70.65,10.7789968 C73.58,9.6289968 76.56,8.5789968 79.62,7.7889968 Z" id="Path" fill="#040404" fill-rule="nonzero"></path>
    </g>
</svg>