<?xml version="1.0" encoding="UTF-8"?>
<svg width="333px" height="125px" viewBox="0 0 333 125" version="1.1" xmlns="http://www.w3.org/2000/svg" xmlns:xlink="http://www.w3.org/1999/xlink">
    <!-- Generator: Sketch 59.1 (86144) - https://sketch.com -->
    <title>Path</title>
    <desc>Created with Sketch.</desc>
    <g id="Page-1" stroke="none" stroke-width="1" fill="none" fill-rule="evenodd">
        <path d="M7.86,0 C16.51,0.32 24.93,2.61 33.51,3.64 C43.04,4.64 52.59,5.43 62.15,6.03 C67.92,4.04 74.14,5.18 80.11,5.3 C85.34,6.24 90.67,5.94 95.95,6.42 C101.3,7.41 106.78,6.85 112.14,7.88 C120.71,8.34 129.48,8.01 137.84,10.22 C141.95,11.44 140.8,16.45 142.07,19.63 C147.95,31.91 158.18,41.41 168.38,50.14 C171.96,50.13 175.71,50.59 179.11,49.2 C181.22,48.38 183.46,48.11 185.71,47.93 C185.99,47.47 186.54,46.57 186.81,46.12 C188.27,46.1 189.74,46.09 191.22,46.07 C192.61,43.77 195.28,44.14 197.57,44 C198,43.59 198.85,42.77 199.27,42.36 C203.63,41.71 207.78,40.01 212.23,39.89 C213.7,38.02 216.09,38.1 218.24,37.85 C222.45,35.61 227.38,35.74 231.99,35.13 C237.02,34.94 242.27,34.73 246.9,37.04 C246.87,40.05 247.42,43.09 247.09,46.09 C245.66,48.35 243.68,50.2 241.71,51.98 C238.43,52.59 234.71,52.84 232.24,55.35 C229.45,58.1 226.39,60.54 223.37,63.02 C222.85,63.05 221.83,63.11 221.31,63.14 C219.62,64.77 218,66.47 216.43,68.21 C226.31,71 236.27,66.25 246.19,65.91 C252.29,62.86 258.98,61.37 265.54,59.64 C268.02,58.69 270.59,58.04 273.25,57.87 C274.37,57.11 275.51,56.37 276.68,55.66 C277.01,55.27 277.69,54.51 278.03,54.13 C278.74,54.13 280.18,54.12 280.9,54.12 C280.92,53.77 280.96,53.07 280.98,52.72 C282.18,51.89 283.38,51.05 284.6,50.23 C285.02,50.17 285.88,50.06 286.3,50 C292.57,44.08 301.67,46.1 309.44,46.19 C314.14,48.7 318.48,51.87 323.47,53.88 C325.19,54.14 326.94,54.43 328.66,54.86 C329.73,55 330.83,55.14 331.93,55.28 C331.95,55.88 331.97,57.1 331.98,57.71 C330.51,58.26 329.04,58.79 327.57,59.29 C329.03,60.29 330.54,61.33 332.04,62.33 C331.99,63.08 331.9,64.59 331.86,65.34 C326.16,64.13 320.07,63.2 314.48,65.36 C309.61,67.71 304.11,67.04 298.91,67.8 C292.55,68.4 286.35,70.14 279.96,70.36 C277.1,71 274.17,71.17 271.31,71.75 C269.02,72.31 266.75,72.88 264.46,73.35 C263.11,73.87 261.76,74.36 260.43,74.86 C254.54,76.25 249.07,78.9 244.02,82.17 C236.77,85.61 231.45,91.88 224.57,95.89 C219.58,98.9 213.68,99.81 207.97,100.36 C204.54,100.86 200.9,101.05 197.93,103.05 C192.79,106.32 187.76,109.93 181.95,111.92 C176.46,113.85 170.8,115.34 165.51,117.78 C156.86,121.83 147.4,123.86 137.94,124.77 C125.44,124.68 113.07,122.34 100.98,119.33 C100.39,119.22 99.22,119.01 98.63,118.9 C95.01,117.73 91.48,116.23 87.8,115.25 C84.65,115.2 81.53,116.43 78.39,115.67 C74.25,115.2 70.29,113.76 66.17,113.29 C63.6,113.84 61.11,114.71 58.58,115.39 C55.93,113.55 53.57,111.34 51.42,108.95 C45.87,108.2 40.72,113.16 35.31,110.75 C31.55,109.82 33.31,105.4 33.04,102.63 C36.15,101.76 38.9,99.82 42.24,99.82 C45.21,97.9 48.78,98.05 52.18,97.98 C54.03,96.51 56.3,96.02 58.61,95.92 C59.07,95.48 59.99,94.61 60.45,94.17 C63.02,94.13 65.59,94.1 68.17,94.01 C70.01,92.8 72.11,92.16 74.27,91.74 C75.82,90.02 78.14,90.11 80.26,89.9 C82.21,87.91 84.48,86.09 87.35,85.77 C89.33,83.98 91.48,82.33 93.13,80.2 C88.99,77.22 85.51,73.35 83.61,68.56 C79.16,63.26 76.05,56.86 70.8,52.27 C69.75,51.08 69.21,49.56 68.49,48.19 C68.26,48.15 67.81,48.07 67.59,48.03 C65.46,44.41 61.85,42.04 59.53,38.57 C57.17,35.13 54.5,31.93 51.51,29.03 C48.49,28.87 45.44,29.23 42.45,28.78 C29.68,25.94 16.51,25.9 3.62,23.87 C2.42,23.46 1.22,23.06 0.02,22.69 C0.01,22.22 0.01,21.29 0,20.83 C1.96,19.15 4.4,17.68 5.11,15.02 C5.47,13.38 7.27,12.98 8.45,12.09 C9.12,12.13 10.47,12.2 11.14,12.24 C9.94,11.02 8.98,9.63 8.54,7.97 C13.25,7.24 18.02,7.21 22.76,6.85 C18.29,4.36 13.03,4.35 8.24,2.79 C8.15,2.09 7.96,0.7 7.86,0 Z" id="Path" fill="#040404" fill-rule="nonzero"></path>
    </g>
</svg>