<?xml version="1.0" encoding="UTF-8"?>
<svg width="47px" height="29px" viewBox="0 0 47 29" version="1.1" xmlns="http://www.w3.org/2000/svg" xmlns:xlink="http://www.w3.org/1999/xlink">
    <!-- Generator: Sketch 59.1 (86144) - https://sketch.com -->
    <title>cloudy</title>
    <desc>Created with Sketch.</desc>
    <g id="cloudy" stroke="none" stroke-width="1" fill="none" fill-rule="evenodd">
        <path d="M15.75912,27.16813 L37.93412,27.16813 C38.08037,27.16813 38.23412,27.16813 38.37912,27.18433 L38.37912,27.16813 C42.00162,27.16813 44.94912,24.22188 44.94912,20.59813 C44.94912,16.97688 42.00162,14.02938 38.37912,14.02938 C37.86787,14.02938 37.33412,14.09688 36.79412,14.22938 C36.61787,14.27438 36.43287,14.24188 36.28162,14.14188 C36.13287,14.04188 36.03037,13.88313 36.00287,13.70438 C35.26787,9.02938 31.30162,5.63563 26.57162,5.63563 C21.30162,5.63563 17.01162,9.92438 17.01162,15.19563 C17.01162,15.45563 17.02912,15.71063 17.05032,15.96438 C17.06782,16.15563 16.99662,16.34563 16.85782,16.47938 C16.72157,16.61438 16.53032,16.67813 16.33782,16.65938 C16.14782,16.63808 15.95407,16.62568 15.75907,16.62568 C12.85157,16.62568 10.48782,18.99068 10.48782,21.89693 C10.48782,24.80318 12.85157,27.16818 15.75907,27.16818 M15.72287,15.33568 L15.72287,15.19568 C15.72287,9.21443 20.58787,4.34568 26.57162,4.34568 C31.71662,4.34568 36.06162,7.87943 37.15287,12.84193 C37.56537,12.77313 37.97787,12.73943 38.37912,12.73943 C42.71162,12.73943 46.23787,16.26443 46.23787,20.59818 C46.23787,24.93193 42.71162,28.45693 38.37662,28.45693 L32.51412,28.45693 L15.75912,28.45693 C12.14037,28.45693 9.19662,25.51443 9.19662,21.89693 C9.19662,18.29068 12.12162,15.35443 15.72287,15.33568" id="path3198" fill="#357491" fill-rule="nonzero"></path>
        <path d="M7.85875,8.39375 C8.26125,8.39375 8.67125,8.42745 9.08625,8.495 C10.17625,3.5325 14.52375,1.77635684e-15 19.6675,1.77635684e-15 C21.90625,1.77635684e-15 24.0575,0.67625 25.88375,1.95875 C26.17625,2.1625 26.2475,2.56375 26.0425,2.855 C25.8375,3.1475 25.4375,3.2175 25.14375,3.01375 C23.535,1.88625 21.64,1.28875 19.6675,1.28875 C14.93625,1.28875 10.96875,4.6825 10.23625,9.3575 C10.20755,9.53625 10.1075,9.695 9.95625,9.795 C9.805,9.895 9.61875,9.92625 9.44375,9.8838 C8.90625,9.7513 8.37375,9.6838 7.85875,9.6838 C4.23625,9.6838 1.28875,12.6313 1.28875,16.25255 C1.28875,19.6313 3.82125,22.44005 7.175,22.7863 C7.52875,22.8225 7.7875,23.14005 7.75125,23.4938 C7.71755,23.8263 7.43625,24.07255 7.10875,24.07255 C7.08755,24.07255 7.06505,24.07155 7.04375,24.07055 C3.0275,23.65555 -1.24344979e-14,20.29555 -1.24344979e-14,16.25305 C-1.24344979e-14,11.9193 3.525,8.3943 7.85875,8.3943" id="path3200" fill="#357491" fill-rule="nonzero"></path>
    </g>
</svg>