<?xml version="1.0" encoding="UTF-8"?>
<svg width="47px" height="42px" viewBox="0 0 47 42" version="1.1" xmlns="http://www.w3.org/2000/svg" xmlns:xlink="http://www.w3.org/1999/xlink">
    <!-- Generator: Sketch 59.1 (86144) - https://sketch.com -->
    <title>rainy</title>
    <desc>Created with Sketch.</desc>
    <g id="rainy" stroke="none" stroke-width="1" fill="none" fill-rule="evenodd">
        <path d="M13.05251,32.07288 C12.73376,31.91538 12.34751,32.04288 12.18751,32.36038 L7.84126,41.05288 C7.68251,41.37038 7.81126,41.75788 8.13001,41.91788 C8.22251,41.96408 8.32126,41.98668 8.41751,41.98668 C8.65501,41.98668 8.88251,41.85543 8.99501,41.63043 L13.34126,32.93668 C13.50001,32.61918 13.37126,32.23168 13.05251,32.07293" id="path318" fill="#357491" fill-rule="nonzero"></path>
        <path d="M20.30163,32.07288 C19.98288,31.91538 19.59663,32.04288 19.43663,32.36038 L15.09038,41.05288 C14.93163,41.37038 15.06038,41.75788 15.37913,41.91788 C15.47163,41.96408 15.56913,41.98668 15.66663,41.98668 C15.90288,41.98668 16.13038,41.85543 16.24413,41.63043 L20.58913,32.93668 C20.74913,32.61918 20.62043,32.23168 20.30163,32.07293" id="path322" fill="#357491" fill-rule="nonzero"></path>
        <path d="M27.55014,32.07288 C27.23264,31.91538 26.84514,32.04288 26.68514,32.36038 L22.33889,41.05288 C22.18014,41.37038 22.30889,41.75788 22.62764,41.91788 C22.72014,41.96408 22.81764,41.98668 22.91514,41.98668 C23.15139,41.98668 23.38014,41.85543 23.49264,41.63043 L27.83889,32.93668 C27.99764,32.61918 27.86889,32.23168 27.55014,32.07293" id="path326" fill="#357491" fill-rule="nonzero"></path>
        <path d="M34.79863,32.07288 C34.47988,31.91538 34.09363,32.04288 33.93363,32.36038 L29.58738,41.05288 C29.42738,41.37038 29.55738,41.75788 29.87613,41.91788 C29.96863,41.96408 30.06613,41.98668 30.16363,41.98668 C30.39988,41.98668 30.62738,41.85543 30.74113,41.63043 L35.08613,32.93668 C35.24613,32.61918 35.11743,32.23168 34.79863,32.07293" id="path330" fill="#357491" fill-rule="nonzero"></path>
        <path d="M42.04663,32.07288 C41.72788,31.91538 41.34163,32.04288 41.18163,32.36038 L36.83538,41.05288 C36.67663,41.37038 36.80538,41.75788 37.12413,41.91788 C37.21663,41.96408 37.31413,41.98668 37.41163,41.98668 C37.64788,41.98668 37.87663,41.85543 37.98913,41.63043 L42.33538,32.93668 C42.49413,32.61918 42.36538,32.23168 42.04663,32.07293" id="path334" fill="#357491" fill-rule="nonzero"></path>
        <path d="M15.75913,27.16812 L37.93538,27.16812 C38.08288,27.16812 38.23663,27.16812 38.38038,27.18432 L38.38038,27.16812 C42.00288,27.16812 44.94913,24.22187 44.94913,20.59812 C44.94913,16.97687 42.00288,14.02937 38.38038,14.02937 C37.86788,14.02937 37.33538,14.09687 36.79538,14.22937 C36.62038,14.27437 36.43538,14.24187 36.28288,14.14187 C36.13288,14.04187 36.03163,13.88312 36.00288,13.70437 C35.26913,9.02937 31.30288,5.63562 26.57163,5.63562 C21.30163,5.63562 17.01288,9.92437 17.01288,15.19562 C17.01288,15.45562 17.03038,15.71062 17.05168,15.96437 C17.06788,16.15562 16.99788,16.34562 16.85918,16.47937 C16.72168,16.61437 16.53043,16.67812 16.33918,16.65937 C16.14918,16.63807 15.95543,16.62567 15.75918,16.62567 C12.85293,16.62567 10.48918,18.99067 10.48918,21.89692 C10.48918,24.80317 12.85293,27.16817 15.75918,27.16817 M15.72418,15.33567 C15.72318,15.28947 15.72318,15.24317 15.72318,15.19567 C15.72318,9.21442 20.59068,4.34567 26.57193,4.34567 C31.71693,4.34567 36.06443,7.87942 37.15318,12.84192 C37.56818,12.77312 37.97818,12.73942 38.38068,12.73942 C42.71318,12.73942 46.23943,16.26442 46.23943,20.59817 C46.23943,24.93192 42.71318,28.45692 38.37693,28.45692 L32.51568,28.45692 L15.75943,28.45692 C12.14193,28.45692 9.19818,25.51442 9.19818,21.89692 C9.19818,18.29067 12.12318,15.35442 15.72443,15.33567" id="path338" fill="#357491" fill-rule="nonzero"></path>
        <path d="M7.86,8.39375 C8.2625,8.39375 8.6725,8.42745 9.08625,8.495 C10.17625,3.5325 14.52375,1.77635684e-15 19.6675,1.77635684e-15 C21.90875,1.77635684e-15 24.0575,0.67625 25.885,1.95875 C26.1775,2.1625 26.2475,2.56375 26.04375,2.855 C25.83875,3.1475 25.4375,3.2175 25.145,3.01375 C23.53625,1.88625 21.64125,1.28875 19.6675,1.28875 C14.9375,1.28875 10.97,4.6825 10.23625,9.3575 C10.20875,9.53625 10.1075,9.695 9.95625,9.795 C9.80625,9.895 9.62125,9.92625 9.445,9.8838 C8.90625,9.7513 8.37375,9.6838 7.86,9.6838 C4.2375,9.6838 1.29125,12.6313 1.29125,16.25255 C1.29125,19.6313 3.82125,22.44005 7.17625,22.7863 C7.53125,22.8225 7.78875,23.14005 7.7525,23.4938 C7.7175,23.8263 7.4375,24.07255 7.11125,24.07255 C7.08875,24.07255 7.06625,24.07155 7.04375,24.07055 C3.02875,23.65555 0,20.29555 0,16.25305 C0,11.9193 3.52625,8.3943 7.86,8.3943" id="path342" fill="#357491" fill-rule="nonzero"></path>
    </g>
</svg>