<?xml version="1.0" encoding="UTF-8"?>
<svg width="46px" height="45px" viewBox="0 0 46 45" version="1.1" xmlns="http://www.w3.org/2000/svg" xmlns:xlink="http://www.w3.org/1999/xlink">
    <!-- Generator: Sketch 59.1 (86144) - https://sketch.com -->
    <title>snowy</title>
    <desc>Created with Sketch.</desc>
    <g id="snowy" stroke="none" stroke-width="1" fill="none" fill-rule="evenodd">
        <path d="M12.93957,29.14463 C12.98207,29.05963 13.00087,28.96963 13.00457,28.87963 M22.19207,29.14463 C22.23457,29.05963 22.25457,28.97088 22.25837,28.88088" id="path214" fill="#357491" fill-rule="nonzero"></path>
        <path d="M15.66145,27.00475 L37.70395,27.00475 C37.85145,27.00475 38.00395,27.00475 38.14645,27.01975 L38.14645,27.00475 C41.74645,27.00475 44.67645,24.07475 44.67645,20.47475 C44.67645,16.87475 41.74645,13.946 38.14645,13.946 C37.6377,13.946 37.10645,14.0122 36.5727,14.14475 C36.3977,14.18845 36.2127,14.15725 36.0627,14.05725 C35.9127,13.95725 35.81145,13.79975 35.7852,13.62225 C35.0552,8.97475 31.1127,5.6035 26.4102,5.6035 C21.17145,5.6035 16.9077,9.866 16.9077,15.10475 C16.9077,15.3635 16.9265,15.61725 16.9464,15.8685 C16.9639,16.0585 16.8926,16.24725 16.7564,16.381 C16.62015,16.5135 16.4289,16.5785 16.24015,16.55975 C16.05015,16.53855 15.8564,16.52605 15.6614,16.52605 C12.7739,16.52605 10.4239,18.87605 10.4239,21.76605 C10.4239,24.6548 12.7739,27.0048 15.6614,27.0048 M15.6277,15.24355 L15.6277,15.1048 C15.6277,9.1598 20.46395,4.32105 26.4102,4.32105 C31.5227,4.32105 35.84395,7.83355 36.9277,12.76355 C37.3402,12.69735 37.74645,12.6623 38.14645,12.6623 C42.4552,12.6623 45.9577,16.1673 45.9577,20.4748 C45.9577,24.7823 42.4552,28.28605 38.14395,28.28605 L32.3177,28.28605 L15.66145,28.28605 C12.06645,28.28605 9.14145,25.36105 9.14145,21.76605 C9.14145,18.1798 12.04645,15.2623 15.6277,15.24355" id="path310" fill="#357491" fill-rule="nonzero"></path>
        <path d="M7.8112,8.34375 C8.2112,8.34375 8.6187,8.37625 9.0312,8.445 C10.1137,3.5125 14.43495,1.77635684e-15 19.5487,1.77635684e-15 C21.7737,1.77635684e-15 23.9112,0.67375 25.72745,1.94625 C26.01745,2.15 26.0887,2.54875 25.88495,2.84 C25.6812,3.12875 25.28245,3.2 24.99245,2.99625 C23.39245,1.875 21.50995,1.28375 19.5487,1.28375 C14.8462,1.28375 10.9037,4.655 10.17495,9.3025 C10.14495,9.47875 10.0437,9.63625 9.89495,9.73625 C9.74495,9.83495 9.5612,9.8675 9.3862,9.82505 C8.8512,9.69255 8.32245,9.62505 7.8112,9.62505 C4.2112,9.62505 1.2812,12.55505 1.2812,16.15505 C1.2812,19.5138 3.7962,22.30505 7.1312,22.6488 C7.4837,22.6851 7.73995,23.0013 7.7037,23.35255 C7.6699,23.68255 7.3912,23.92755 7.0662,23.92755 C7.0449,23.92755 7.0225,23.92755 7,23.92555 C3.00875,23.5143 -8.8817842e-15,20.17305 -8.8817842e-15,16.15555 C-8.8817842e-15,11.8493 3.50375,8.3443 7.81125,8.3443" id="path314" fill="#357491" fill-rule="nonzero"></path>
        <path d="M13.72457,34.40588 C13.72457,35.58338 12.76582,36.54088 11.58832,36.54088 C10.40832,36.54088 9.45332,35.58338 9.45332,34.40588 C9.45332,33.22963 10.40832,32.27088 11.58832,32.27088 C12.76582,32.27088 13.72457,33.22963 13.72457,34.40588" id="path790" fill="#357491" fill-rule="nonzero"></path>
        <path d="M9.17682,42.26525 C9.17682,43.44275 8.21807,44.40025 7.04057,44.40025 C5.86057,44.40025 4.90557,43.44275 4.90557,42.26525 C4.90557,41.089 5.86057,40.13025 7.04057,40.13025 C8.21807,40.13025 9.17682,41.089 9.17682,42.26525" id="path794" fill="#357491" fill-rule="nonzero"></path>
        <path d="M25.62395,34.40588 C25.62395,35.58338 24.6652,36.54088 23.4877,36.54088 C22.3077,36.54088 21.3527,35.58338 21.3527,34.40588 C21.3527,33.22963 22.3077,32.27088 23.4877,32.27088 C24.6652,32.27088 25.62395,33.22963 25.62395,34.40588" id="path798" fill="#357491" fill-rule="nonzero"></path>
        <path d="M21.0762,42.26525 C21.0762,43.44275 20.11745,44.40025 18.93995,44.40025 C17.75995,44.40025 16.80495,43.44275 16.80495,42.26525 C16.80495,41.089 17.75995,40.13025 18.93995,40.13025 C20.11745,40.13025 21.0762,41.089 21.0762,42.26525" id="path802" fill="#357491" fill-rule="nonzero"></path>
        <path d="M37.4257,34.40588 C37.4257,35.58338 36.46695,36.54088 35.28945,36.54088 C34.10945,36.54088 33.15445,35.58338 33.15445,34.40588 C33.15445,33.22963 34.10945,32.27088 35.28945,32.27088 C36.46695,32.27088 37.4257,33.22963 37.4257,34.40588" id="path806" fill="#357491" fill-rule="nonzero"></path>
        <path d="M32.87794,42.26525 C32.87794,43.44275 31.91919,44.40025 30.74169,44.40025 C29.56169,44.40025 28.60669,43.44275 28.60669,42.26525 C28.60669,41.089 29.56169,40.13025 30.74169,40.13025 C31.91919,40.13025 32.87794,41.089 32.87794,42.26525" id="path810" fill="#357491" fill-rule="nonzero"></path>
    </g>
</svg>