<?xml version="1.0" encoding="UTF-8"?>
<svg width="312px" height="294px" viewBox="0 0 312 294" version="1.1" xmlns="http://www.w3.org/2000/svg" xmlns:xlink="http://www.w3.org/1999/xlink">
    <!-- Generator: Sketch 59.1 (86144) - https://sketch.com -->
    <title>stars-moon-icon</title>
    <desc>Created with Sketch.</desc>
    <g id="Page-1" stroke="none" stroke-width="1" fill="none" fill-rule="evenodd">
        <g id="stars-moon-icon" fill="#000000" fill-rule="nonzero">
            <path d="M125.844444,246.848058 C86.2753771,236.226191 57.0159464,199.102993 56.7902049,154.865604 C39.8152412,165.032208 28.3944448,184.035136 28.3944448,205.8 C28.3944448,238.274345 53.8196951,264.6 85.1833339,264.6 C101.123808,264.6 115.530307,257.79969 125.844444,246.848058 Z M205.520832,117.6 L222.760316,165.199999 L255.21111,176.4 L222.760316,187.6 L205.520832,235.2 L188.281348,187.6 L155.830554,176.4 L188.281348,165.199999 L205.520832,117.6 Z M169.688884,216.979528 C164.382904,260.412777 128.571325,294 85.1833339,294 C38.1378755,294 0,254.511518 0,205.8 C0,165.157884 26.5488558,130.936184 62.6693259,120.71337 C69.8409648,118.683652 77.3899276,117.6 85.1833339,117.6 C88.6857645,117.6 92.1388243,117.818864 95.5304527,118.244103 C88.9866959,128.625881 85.1833339,141.02805 85.1833339,154.35 C85.1833339,190.883638 113.78674,220.5 149.070835,220.5 C156.285284,220.5 163.220432,219.261831 169.688884,216.979528 Z M148.731943,0 L165.971427,47.6 L198.422221,58.8 L165.971427,70 L148.731943,117.6 L131.492459,70 L99.0416643,58.8 L131.492459,47.6 L148.731943,0 Z M288.820861,79.8 L312,88.2 L288.820861,96.6 L276.506944,132.3 L264.193027,96.6 L241.013888,88.2 L264.193027,79.8 L276.506944,44.1 L288.820861,79.8 Z" id="Oval-20-copy-4"></path>
        </g>
    </g>
</svg>