<?xml version="1.0" encoding="UTF-8"?>
<svg width="44px" height="44px" viewBox="0 0 44 44" version="1.1" xmlns="http://www.w3.org/2000/svg" xmlns:xlink="http://www.w3.org/1999/xlink">
    <!-- Generator: Sketch 59.1 (86144) - https://sketch.com -->
    <title>sunny</title>
    <desc>Created with Sketch.</desc>
    <g id="sunny" stroke="none" stroke-width="1" fill="none" fill-rule="evenodd">
        <path d="M21.6107437,31.60775 C16.1319937,31.60775 11.6757437,27.15025 11.6757437,21.6715 C11.6757437,16.194 16.1319937,11.7365 21.6107437,11.7365 C27.0894937,11.7365 31.5457437,16.194 31.5457437,21.6715 C31.5457437,27.15025 27.0894937,31.60775 21.6107437,31.60775 M21.6107437,10.33275 C15.3582437,10.33275 10.2719937,15.419 10.2719937,21.6715 C10.2719937,27.924 15.3582437,33.0115 21.6107437,33.0115 C27.8619937,33.0115 32.9494937,27.924 32.9494937,21.6715 C32.9494937,15.419 27.8619937,10.33275 21.6107437,10.33275" id="path22" fill="#357491" fill-rule="nonzero"></path>
        <path d="M21.6107437,7.00875 C21.9982437,7.00875 22.3119937,6.695 22.3119937,6.30625 L22.3119937,0.70125 C22.3119937,0.31375 21.9982437,4.4408921e-16 21.6107437,4.4408921e-16 C21.2232437,4.4408921e-16 20.9082437,0.31375 20.9082437,0.70125 L20.9082437,6.30625 C20.9082437,6.695 21.2232437,7.00875 21.6107437,7.00875" id="path26" fill="#357491" fill-rule="nonzero"></path>
        <path d="M21.6107437,36.17387 C21.2232437,36.17387 20.9082437,36.48762 20.9082437,36.87637 L20.9082437,42.48137 C20.9082437,42.86887 21.2232437,43.18262 21.6107437,43.18262 C21.9982437,43.18262 22.3119937,42.86887 22.3119937,42.48137 L22.3119937,36.87637 C22.3119937,36.48762 21.9982437,36.17387 21.6107437,36.17387" id="path30" fill="#357491" fill-rule="nonzero"></path>
        <path d="M29.2883737,9.19325 C29.4033737,9.26455 29.5308737,9.29825 29.6571237,9.29825 C29.8921237,9.29825 30.1221237,9.18075 30.2546237,8.96575 L33.2058737,4.1995 C33.4083737,3.8695 33.3071237,3.43825 32.9783737,3.23325 C32.6483737,3.0295 32.2158737,3.13075 32.0121237,3.46075 L29.0608737,8.22825 C28.8571237,8.557 28.9583737,8.9895 29.2883737,9.19325" id="path34" fill="#357491" fill-rule="nonzero"></path>
        <path d="M13.9337437,33.98937 C13.6049937,33.78562 13.1712437,33.88687 12.9674937,34.21687 L10.0162437,38.98312 C9.81249374,39.31312 9.91499374,39.74437 10.2437437,39.94937 C10.3599937,40.02057 10.4862437,40.05437 10.6124937,40.05437 C10.8474937,40.05437 11.0774937,39.93687 11.2099937,39.72187 L14.1612437,34.95437 C14.3649937,34.62562 14.2624937,34.19312 13.9337437,33.98937" id="path38" fill="#357491" fill-rule="nonzero"></path>
        <path d="M35.0909937,15.09662 C35.2034937,15.09662 35.3159937,15.07042 35.4222437,15.01412 L40.3672437,12.36537 C40.7097437,12.18287 40.8384937,11.75787 40.6547437,11.41537 C40.4722437,11.07537 40.0472437,10.94537 39.7047437,11.12912 L34.7597437,13.77662 C34.4172437,13.95912 34.2884937,14.38537 34.4722437,14.72662 C34.5984937,14.96287 34.8409937,15.09662 35.0909937,15.09662" id="path42" fill="#357491" fill-rule="nonzero"></path>
        <path d="M7.78987374,28.21362 L2.84237374,30.86112 C2.50112374,31.04487 2.37237374,31.46862 2.55487374,31.81112 C2.68237374,32.04737 2.92362374,32.18237 3.17487374,32.18237 C3.28612374,32.18237 3.39862374,32.15487 3.50487374,32.09857 L8.45112374,29.45107 C8.79362374,29.26732 8.92237374,28.84232 8.73987374,28.49982 C8.55612374,28.15982 8.13237374,28.03107 7.78987374,28.21357" id="path46" fill="#357491" fill-rule="nonzero"></path>
        <path d="M42.5122437,20.85099 L42.5102437,20.85099 L36.9002437,20.86719 C36.5127437,20.86819 36.1989937,21.18344 36.20024,21.57094 C36.2012437,21.95719 36.5152437,22.27094 36.9014937,22.27094 L36.9034937,22.27094 L42.5134937,22.25474 C42.9009937,22.25374 43.2147437,21.93849 43.2134975,21.55099 C43.2124937,21.16349 42.8984937,20.85099 42.5122437,20.85099" id="path50" fill="#357491" fill-rule="nonzero"></path>
        <path d="M7.01350374,21.65362 C7.01250374,21.26612 6.69850374,20.95362 6.31100374,20.95362 L6.31000374,20.95362 L0.700003737,20.96992 C0.311253737,20.97092 -0.00124626306,21.28617 1.46549439e-14,21.67367 C0.00100373694,22.06117 0.315003737,22.37367 0.701253737,22.37367 L0.703253737,22.37367 L6.31325374,22.35737 C6.70075374,22.35637 7.01325374,22.04112 7.01325374,21.65362" id="path54" fill="#357491" fill-rule="nonzero"></path>
        <path d="M40.2991237,31.00112 L35.3741237,28.30987 C35.0341237,28.12362 34.6078737,28.24857 34.4216237,28.58862 C34.2366237,28.92862 34.3616237,29.35612 34.7016237,29.54112 L39.6253737,32.23112 C39.7328737,32.29112 39.8478737,32.31862 39.9616237,32.31862 C40.2091237,32.31862 40.4516237,32.18612 40.5778737,31.95362 C40.7641237,31.61237 40.6378737,31.18612 40.2991237,31.00112" id="path58" fill="#357491" fill-rule="nonzero"></path>
        <path d="M8.52300374,13.63349 L3.59925374,10.94224 C3.25925374,10.75599 2.83175374,10.88094 2.64675374,11.22099 C2.46050374,11.56099 2.58545374,11.98849 2.92550374,12.17349 L7.84925374,14.86474 C7.95675374,14.92354 8.07175374,14.95104 8.18550374,14.95104 C8.43425374,14.95104 8.67550374,14.81854 8.80300374,14.58604 C8.98800374,14.24604 8.86300374,13.81854 8.52300374,13.63354" id="path62" fill="#357491" fill-rule="nonzero"></path>
        <path d="M30.3179937,34.189 C30.1129937,33.8615 29.6804937,33.76025 29.3517437,33.9665 C29.0229937,34.1715 28.9229937,34.60525 29.1292437,34.93275 L32.1029937,39.6915 C32.2354937,39.904 32.4642437,40.02025 32.6979937,40.02025 C32.8254937,40.02025 32.9529937,39.98655 33.0692437,39.914 C33.3979937,39.709 33.4979937,39.27525 33.2929937,38.9465 L30.3179937,34.189 L30.3179937,34.189 Z" id="path66" fill="#357491" fill-rule="nonzero"></path>
        <path d="M12.9058737,8.987 C13.0383737,9.1995 13.2683737,9.317 13.5008737,9.317 C13.6283737,9.317 13.7571237,9.282 13.8721237,9.21075 C14.2008737,9.0045 14.3008737,8.57075 14.0958737,8.24325 L11.1208737,3.4845 C10.9158737,3.157 10.4833737,3.05575 10.1533737,3.262 C9.82462374,3.467 9.72587374,3.90075 9.93087374,4.22825 L12.9058737,8.987 Z" id="path70" fill="#357491" fill-rule="nonzero"></path>
    </g>
</svg>