<?xml version="1.0" encoding="UTF-8"?>
<svg width="50px" height="39px" viewBox="0 0 50 39" version="1.1" xmlns="http://www.w3.org/2000/svg" xmlns:xlink="http://www.w3.org/1999/xlink">
    <!-- Generator: Sketch 59.1 (86144) - https://sketch.com -->
    <title>thunderstorm</title>
    <desc>Created with Sketch.</desc>
    <g id="thunderstorm" stroke="none" stroke-width="1" fill="none" fill-rule="evenodd">
        <path d="M16.78483,28.9375 L40.40483,28.9375 C40.56233,28.9375 40.72608,28.9375 40.87983,28.955 L40.87983,28.9375 C44.73733,28.9375 47.87733,25.8 47.87733,21.94125 C47.87733,18.0825 44.73733,14.94375 40.87983,14.94375 C40.33233,14.94375 39.76483,15.01625 39.19108,15.15875 C39.00483,15.20375 38.80733,15.17005 38.64608,15.06375 C38.48608,14.95625 38.37733,14.7875 38.34733,14.5975 C37.56608,9.6175 33.34108,6.00375 28.30233,6.00375 C22.68733,6.00375 18.11858,10.5725 18.11858,16.1875 C18.11858,16.46375 18.13858,16.73625 18.16238,17.00625 C18.17738,17.21 18.10238,17.41 17.95613,17.55375 C17.80988,17.69625 17.60613,17.76625 17.40488,17.745 C17.19988,17.7237 16.99488,17.71 16.78488,17.71 C13.68863,17.71 11.17113,20.22875 11.17113,23.32375 C11.17113,26.41875 13.68863,28.9375 16.78488,28.9375 M16.74738,16.33625 C16.74638,16.28625 16.74638,16.23625 16.74638,16.1875 C16.74638,9.81375 21.93013,4.63 28.30263,4.63 C33.78138,4.63 38.41263,8.39375 39.57263,13.6775 C40.01388,13.6075 40.45138,13.57 40.88013,13.57 C45.49513,13.57 49.25138,17.32625 49.25138,21.94125 C49.25138,26.55625 45.49513,30.31125 40.87638,30.31125 L34.63263,30.31125 L16.78513,30.31125 C12.93138,30.31125 9.79763,27.1775 9.79763,23.32375 C9.79763,19.48375 12.91138,16.35625 16.74763,16.33625" id="path530" fill="#357491" fill-rule="nonzero"></path>
        <path d="M8.3712,8.94125 C8.8012,8.94125 9.2387,8.97745 9.67745,9.04875 C10.83995,3.765 15.46995,-1.77635684e-15 20.9487,-1.77635684e-15 C23.3337,-1.77635684e-15 25.6237,0.7225 27.5712,2.08625 C27.88245,2.30375 27.9562,2.73375 27.73995,3.04375 C27.5212,3.35375 27.0937,3.43 26.78245,3.2125 C25.06745,2.01 23.0512,1.37375 20.9487,1.37375 C15.90995,1.37375 11.6837,4.98875 10.90245,9.96875 C10.87245,10.16 10.76495,10.3275 10.6037,10.435 C10.44495,10.54 10.24745,10.575 10.0587,10.53 C9.4862,10.38625 8.9187,10.315 8.3712,10.315 C4.5137,10.315 1.3737,13.45375 1.3737,17.31125 C1.3737,20.91125 4.06995,23.9025 7.6437,24.27125 C8.0212,24.31125 8.29495,24.64875 8.2562,25.025 C8.2187,25.37875 7.9212,25.6425 7.5737,25.6425 C7.55,25.6425 7.5262,25.6415 7.5025,25.6385 C3.22625,25.196 -2.66453526e-14,21.61725 -2.66453526e-14,17.311 C-2.66453526e-14,12.696 3.75625,8.941 8.37125,8.941" id="path534" fill="#357491" fill-rule="nonzero"></path>
        <path d="M16.10813,34.14759 C15.74132,34.14847 15.44522,34.44457 15.44434,34.81138 L15.44434,35.83315 L14.42257,35.83315 C14.05664,35.83315 13.75965,36.13014 13.75877,36.49695 C13.75965,36.86376 14.05664,37.16074 14.42257,37.16074 L15.44434,37.16074 L15.44345,38.18163 C15.44345,38.54756 15.74044,38.84454 16.10725,38.84543 C16.2911,38.84543 16.45815,38.77033 16.57747,38.65097 C16.69768,38.53076 16.77193,38.36459 16.77104,38.18163 L16.77193,37.16074 L17.79281,37.15986 C17.97666,37.15986 18.14195,37.08646 18.26216,36.96629 C18.38236,36.84608 18.45661,36.67991 18.45661,36.49606 C18.45573,36.12925 18.15874,35.83227 17.79281,35.83227 L16.77193,35.83315 L16.77193,34.81138 C16.77193,34.44545 16.47494,34.14847 16.10813,34.14759" id="path3152" fill="#357491" fill-rule="nonzero"></path>
        <path d="M28.10813,34.14759 C27.74132,34.14847 27.44522,34.44457 27.44434,34.81138 L27.44434,35.83315 L26.42257,35.83315 C26.05664,35.83315 25.75965,36.13014 25.75877,36.49695 C25.75965,36.86376 26.05664,37.16074 26.42257,37.16074 L27.44434,37.16074 L27.44345,38.18163 C27.44345,38.54756 27.74044,38.84454 28.10725,38.84543 C28.2911,38.84543 28.45815,38.77033 28.57747,38.65097 C28.69768,38.53076 28.77193,38.36459 28.77104,38.18163 L28.77193,37.16074 L29.79281,37.15986 C29.97666,37.15986 30.14195,37.08646 30.26216,36.96629 C30.38236,36.84608 30.45661,36.67991 30.45661,36.49606 C30.45573,36.12925 30.15874,35.83227 29.79281,35.83227 L28.77193,35.83315 L28.77193,34.81138 C28.77193,34.44545 28.47494,34.14847 28.10813,34.14759" id="path3158" fill="#357491" fill-rule="nonzero"></path>
        <path d="M40.10813,34.14759 C39.74132,34.14847 39.44522,34.44457 39.44434,34.81138 L39.44434,35.83315 L38.42257,35.83315 C38.05664,35.83315 37.75965,36.13014 37.75877,36.49695 C37.75965,36.86376 38.05664,37.16074 38.42257,37.16074 L39.44434,37.16074 L39.44345,38.18163 C39.44345,38.54756 39.74044,38.84454 40.10725,38.84543 C40.2911,38.84543 40.45815,38.77033 40.57747,38.65097 C40.69768,38.53076 40.77193,38.36459 40.77104,38.18163 L40.77193,37.16074 L41.79281,37.15986 C41.97666,37.15986 42.14195,37.08646 42.26216,36.96629 C42.38236,36.84608 42.45661,36.67991 42.45661,36.49606 C42.45573,36.12925 42.15874,35.83227 41.79281,35.83227 L40.77193,35.83315 L40.77193,34.81138 C40.77193,34.44545 40.47494,34.14847 40.10813,34.14759" id="path3160" fill="#357491" fill-rule="nonzero"></path>
    </g>
</svg>