<?xml version="1.0" encoding="UTF-8"?>
<svg width="38px" height="36px" viewBox="0 0 38 36" version="1.1" xmlns="http://www.w3.org/2000/svg" xmlns:xlink="http://www.w3.org/1999/xlink">
    <!-- Generator: Sketch 59.1 (86144) - https://sketch.com -->
    <title>windy</title>
    <desc>Created with Sketch.</desc>
    <g id="windy" stroke="none" stroke-width="1" fill="none" fill-rule="evenodd">
        <path d="M0.758324797,13.2583686 C-0.256725203,16.6244686 -0.296305203,20.2765986 0.904624797,23.8363186 C3.7659648,32.3177086 13.1423448,37.4385486 21.7604248,34.4633386 C29.3669248,31.8373686 33.9556948,23.3762986 31.2060348,15.6329186 C28.8157148,8.90148856 21.2693948,4.84211856 14.4010048,7.36872856 C8.5448748,9.52295856 5.0440448,16.1642786 7.3513248,22.1572486 C9.2688348,27.1378186 14.9977448,30.1194686 20.1144548,28.0255086 C24.2191548,26.3457286 26.6592548,21.5176786 24.7682048,17.2788886 C23.3278148,14.0502786 19.3947048,12.1307986 16.0381048,13.8396586 C14.8614548,14.4387086 13.9241848,15.4793686 13.4625448,16.6979386 C13.0009048,17.9165186 13.0162648,19.3564886 13.8045248,20.5863586 C14.2818148,21.3310686 15.0679948,21.8746686 15.9487048,22.1189586 C16.8294148,22.3632586 17.9184248,22.2268986 18.6541448,21.4245186 C19.1015448,20.9365886 19.1890748,20.3892686 19.1308048,19.7780386 C19.1017048,19.4724286 19.0232548,19.1333586 18.7058048,18.8480286 C18.3883548,18.5627086 17.8671748,18.4777386 17.4631048,18.5860186 L17.8543548,20.0392486 C17.9329548,20.0182486 17.7823548,20.0382486 17.6976948,19.9617486 C17.6130948,19.8856486 17.6332948,19.8369286 17.6403948,19.9109486 C17.6544948,20.0588886 17.4880348,20.4735686 17.5403948,20.4164186 C17.2056648,20.7814786 16.8190048,20.8309786 16.3301648,20.6953686 C15.8413248,20.5597686 15.3419148,20.1522886 15.0904748,19.7599686 C14.5751748,18.9559786 14.5598848,18.0756386 14.8837648,17.2207086 C15.2076448,16.3657686 15.8913248,15.5753486 16.7143348,15.1563586 C19.2268848,13.8772086 22.2769448,15.3999986 23.3941848,17.9042786 C24.9120148,21.3065286 22.8979748,25.2494086 19.5310548,26.6272586 C15.2455248,28.3810486 10.3703248,25.8396986 8.7407148,21.6069586 C6.7519848,16.4413686 9.8086248,10.6586986 14.9093248,8.78235856 C20.9531548,6.55906856 27.6724548,10.1712086 29.7924048,16.1412486 C32.2500348,23.0622186 28.1255848,30.6971086 21.2852148,33.0585986 C13.4878648,35.7504686 4.9440548,31.0813786 2.3424848,23.3699886 C-0.583565203,14.6967486 4.5964648,5.23358856 13.1793948,2.39300856 C22.7281548,-0.767221436 33.1118348,4.92333856 36.1906348,14.3782186 L37.6285048,13.9118786 C34.2970548,3.68109856 23.0800748,-2.47588144 12.7130548,0.955138564 C6.8654648,2.89044856 2.4500748,7.64821856 0.758324797,13.2583786 L0.758324797,13.2583686 Z" id="path4117" fill="#357491" fill-rule="nonzero"></path>
    </g>
</svg>